{"title":"President's Day (2010) DVDRip - RadioResearch","uid":8445641,"size":869937531,"categoryP":"video","categoryS":"movies","magnet":"?xt=urn:btih:3ff99b7d4e5a171b62175f14932ad788e9f10190&amp;dn=President%27s+Day+%282010%29+DVDRip+-+RadioResearch&amp;tr=udp%3A%2F%2Ftracker.openbittorrent.com%3A80&amp;tr=udp%3A%2F%2Fopen.demonii.com%3A1337&amp;tr=udp%3A%2F%2Ftracker.coppersurfer.tk%3A6969&amp;tr=udp%3A%2F%2Fexodus.desync.com%3A6969","seeders":0,"leechers":1,"uploader":"RadioResearch","files":3,"time":1367877897,"description":"*******************************************************************************\n                 President's Day (2010) DVDRip - RadioResearch\n*******************************************************************************\n\n-------------------------------------------------------------------------------\n                              General Information\n-------------------------------------------------------------------------------\nType.................: Movie\n\n\n\nVideo Format.........: AVI\nVideo Bitrate........: 1411\nResolution...........: 720 x 404\nColor................: 8 bit\nFPS..................: 23.976\nSource...............: DVD 16x9\nOriginal Format......: NTSC\nGenre................: Horror\nIMDb Rating..........: 5.8\nMovie Information....: http://www.imdb.com/title/tt1581336/\n\n-------------------------------------------------------------------------------\n                               Post Information\n-------------------------------------------------------------------------------\nPosted by............: RadioResearch\nPosted on............: 5/6/2013\n\n-------------------------------------------------------------------------------\n                                 Release Notes\n-------------------------------------------------------------------------------\nSEEDBOX SUPPORTED!!\n\nIt's campaign season, and the students of Lincoln High are buzzing about who's \ngoing to be class president... But when a psycho dressed as Abraham Lincoln is \nhacking up students, the candidates must run...for their lives.  One-by-one, the \nmighty Lincoln Lambs are being slaughtered by the merciless maniac in the \nstovepipe hat.\n\nEveryone is dying for a vote....\n\nAbraham Lincoln, Axe Murderer.  I love it!  Has the look and feel of a schlocky \n'80s slasher movie, but got some decently high ratings.  Check it out and have a \nlaugh over your favorite beverage.\n\nEnjoy!\nRadioResearch\n\nGeneral\nComplete name                            : G:President's Day (2010) DVDRip - \nRadioResearchPRESIDENTS_DAY_{RadioResearch}.avi\nFormat                                   : AVI\nFormat/Info                              : Audio Video Interleave\nFile size                                : 830 MiB\nDuration                                 : 1h 22mn\nOverall bit rate                         : 1 411 Kbps\nMovie name                               : PRESIDENTS_DAY_REGION1.Title6.DVDRip\nWriting application                      : Lavf53.32.100\nOriginal source form/Name                : PRESIDENTS_DAY_REGION1\n\nVideo\nID                                       : 0\nFormat                                   : MPEG-4 Visual\nFormat profile                           : Advanced Simple@L5\nFormat settings, BVOP                    : 2\nFormat settings, QPel                    : No\nFormat settings, GMC                     : No warppoints\nFormat settings, Matrix                  : Default (H.263)\nMuxing mode                              : Packed bitstream\nCodec ID                                 : XVID\nCodec ID/Hint                            : XviD\nDuration                                 : 1h 22mn\nBit rate                                 : 1 272 Kbps\nWidth                                    : 720 pixels\nHeight                                   : 404 pixels\nDisplay aspect ratio                     : 16:9\nFrame rate                               : 23.976 fps\nColor space                              : YUV\nChroma subsampling                       : 4:2:0\nBit depth                                : 8 bits\nScan type                                : Progressive\nCompression mode                         : Lossy\nBits/(Pixel*Frame)                       : 0.182\nStream size                              : 748 MiB (90%)\nWriting library                          : XviD 64\n\nAudio\nID                                       : 1\nFormat                                   : AC-3\nFormat/Info                              : Audio Coding 3\nMode extension                           : CM (complete main)\nFormat settings, Endianness              : Big\nCodec ID                                 : 2000\nDuration                                 : 1h 22mn\nBit rate mode                            : Constant\nBit rate                                 : 128 Kbps\nChannel(s)                               : 2 channels\nChannel positions                        : Front: L R\nSampling rate                            : 48.0 KHz\nBit depth                                : 16 bits\nCompression mode                         : Lossy\nStream size                              : 75.2 MiB (9%)\nAlignment                                : Aligned on interleaves\nInterleave, duration                     : 32 ms (0.77 video frame)\n\nAVI FILE MD5 HASH  57599f8b0fc0388189cbe14a9d659128\n\n\n\n-------------------------------------------------------------------------------\nGenerated with Cool NFO Creator - http://fly.to/coolbeans\n-------------------------------------------------------------------------------\n","torrent":{"xt":"urn:btih:3ff99b7d4e5a171b62175f14932ad788e9f10190","amp;dn":"President%27s+Day+%282010%29+DVDRip+-+RadioResearch","amp;tr":["udp%3A%2F%2Ftracker.openbittorrent.com%3A80","udp%3A%2F%2Fopen.demonii.com%3A1337","udp%3A%2F%2Ftracker.coppersurfer.tk%3A6969","udp%3A%2F%2Fexodus.desync.com%3A6969"],"infoHash":"3ff99b7d4e5a171b62175f14932ad788e9f10190","infoHashBuffer":{"type":"Buffer","data":[63,249,155,125,78,90,23,27,98,23,95,20,147,42,215,136,233,241,1,144]},"announce":[],"urlList":[]}}